<?xml version="1.0" encoding="UTF-8" standalone="no"?>
<!-- Created with Inkscape (http://www.inkscape.org/) -->

<svg
   version="1.1"
   id="svg1905"
   xml:space="preserve"
   width="384"
   height="288"
   viewBox="0 0 384 288"
   sodipodi:docname="ejp.svg"
   inkscape:version="1.1.2 (0a00cf5339, 2022-02-04)"
   xmlns:inkscape="http://www.inkscape.org/namespaces/inkscape"
   xmlns:sodipodi="http://sodipodi.sourceforge.net/DTD/sodipodi-0.dtd"
   xmlns="http://www.w3.org/2000/svg"
   xmlns:svg="http://www.w3.org/2000/svg"><defs
     id="defs1909" /><sodipodi:namedview
     id="namedview1907"
     pagecolor="#ffffff"
     bordercolor="#666666"
     borderopacity="1.0"
     inkscape:pageshadow="2"
     inkscape:pageopacity="0.0"
     inkscape:pagecheckerboard="0"
     showgrid="false"
     inkscape:zoom="1.8526974"
     inkscape:cx="347.06153"
     inkscape:cy="148.16235"
     inkscape:window-width="1920"
     inkscape:window-height="1011"
     inkscape:window-x="0"
     inkscape:window-y="32"
     inkscape:window-maximized="1"
     inkscape:current-layer="g1913" /><g
     id="g1911"
     inkscape:groupmode="layer"
     inkscape:label="ink_ext_XXXXXX"
     transform="matrix(1.3333333,0,0,-1.3333333,0,288)"><g
       id="g1913"
       transform="scale(0.1)"><g
         id="g1915"
         transform="scale(10)"><g
           aria-label="EDUCATION JUSTICE PROJECT"
           transform="matrix(1,0,0,-1,13.798,52.225)"
           id="text1919"
           style="font-weight:500;font-size:14px;font-family:Gotham;-inkscape-font-specification:Gotham-Medium;fill:#ffffff"><path
             d="M 1.386,0 H 8.54 V -1.008 H 2.492 v -3.43 H 7.84 V -5.446 H 2.492 V -8.792 H 8.47 V -9.8 H 1.386 Z"
             id="path4367" /><path
             d="m 12.166294,0 h 3.402 c 3.08,0 5.208,-2.142 5.208,-4.9 v -0.028 c 0,-2.758 -2.128,-4.872 -5.208,-4.872 h -3.402 z m 3.402,-8.778 c 2.478,0 4.06,1.708 4.06,3.878 v 0.028 c 0,2.17 -1.582,3.85 -4.06,3.85 h -2.296 v -7.756 z"
             id="path4369" /><path
             d="m 28.433991,0.154 c 2.45,0 4.088,-1.484 4.088,-4.34 V -9.8 h -1.106 v 5.698 c 0,2.142 -1.148,3.234 -2.954,3.234 -1.862,0 -2.996,-1.19 -2.996,-3.304 V -9.8 h -1.106 v 5.698 c 0,2.772 1.652,4.256 4.074,4.256 z"
             id="path4371" /><path
             d="m 40.991992,0.168 c 1.778,0 2.898,-0.686 3.92,-1.722 l -0.728,-0.714 c -0.938,0.896 -1.82,1.414 -3.164,1.414 -2.156,0 -3.794,-1.778 -3.794,-4.046 v -0.028 c 0,-2.254 1.624,-4.018 3.794,-4.018 1.33,0 2.254,0.56 3.08,1.344 l 0.756,-0.812 c -0.98,-0.924 -2.044,-1.554 -3.822,-1.554 -2.884,0 -4.956,2.296 -4.956,5.068 v 0.028 c 0,2.814 2.086,5.04 4.914,5.04 z"
             id="path4373" /><path
             d="m 47.403388,0 h 1.134 l 1.162,-2.59 h 5.334 l 1.148,2.59 h 1.19 l -4.466,-9.87 h -1.036 z m 2.73,-3.598 2.24,-4.984 2.226,4.984 z"
             id="path4375" /><path
             d="m 63.293387,0 h 1.12 v -8.778 h 3.29 V -9.8 h -7.7 v 1.022 h 3.29 z"
             id="path4377" /><path
             d="m 71.273085,0 h 1.106 v -9.8 h -1.106 z"
             id="path4379" /><path
             d="m 81.562976,0.168 c 2.982,0 5.012,-2.366 5.012,-5.068 v -0.028 c 0,-2.702 -2.002,-5.04 -4.984,-5.04 -2.982,0 -5.012,2.366 -5.012,5.068 v 0.028 c 0,2.702 2.002,5.04 4.984,5.04 z m 0.028,-1.022 c -2.24,0 -3.864,-1.82 -3.864,-4.046 v -0.028 c 0,-2.226 1.596,-4.018 3.836,-4.018 2.24,0 3.864,1.82 3.864,4.046 v 0.028 c 0,2.226 -1.596,4.018 -3.836,4.018 z"
             id="path4381" /><path
             d="m 90.312781,0 h 1.078 v -8.036 l 6.328,8.036 h 0.882 v -9.8 h -1.078 v 7.854 l -6.174,-7.854 h -1.036 z"
             id="path4383" /><path
             d="m 110.44537,0.14 c 0.868,0 1.61,-0.28 2.156,-0.812 0.56,-0.56 0.896,-1.428 0.896,-2.576 V -9.8 h -1.12 v 6.566 c 0,1.554 -0.812,2.352 -1.918,2.352 -1.022,0 -1.638,-0.49 -2.24,-1.4 l -0.798,0.686 c 0.616,1.008 1.554,1.736 3.024,1.736 z"
             id="path4385" /><path
             d="m 121.53262,0.154 c 2.45,0 4.088,-1.484 4.088,-4.34 V -9.8 h -1.106 v 5.698 c 0,2.142 -1.148,3.234 -2.954,3.234 -1.862,0 -2.996,-1.19 -2.996,-3.304 V -9.8 h -1.106 v 5.698 c 0,2.772 1.652,4.256 4.074,4.256 z"
             id="path4387" /><path
             d="m 132.97062,0.14 c 1.946,0 3.346,-1.092 3.346,-2.772 V -2.66 c 0,-1.498 -1.008,-2.296 -3.192,-2.772 -2.156,-0.462 -2.66,-0.98 -2.66,-1.904 v -0.028 c 0,-0.882 0.812,-1.582 2.086,-1.582 1.008,0 1.918,0.322 2.828,1.064 l 0.644,-0.854 c -0.994,-0.798 -2.016,-1.204 -3.444,-1.204 -1.862,0 -3.22,1.134 -3.22,2.674 v 0.028 c 0,1.61 1.036,2.338 3.29,2.828 2.058,0.434 2.548,0.952 2.548,1.862 v 0.028 c 0,0.966 -0.868,1.666 -2.184,1.666 -1.358,0 -2.338,-0.462 -3.36,-1.386 l -0.686,0.812 c 1.176,1.05 2.45,1.568 4.004,1.568 z"
             id="path4389" /><path
             d="m 142.56104,0 h 1.12 v -8.778 h 3.29 V -9.8 h -7.7 v 1.022 h 3.29 z"
             id="path4391" /><path
             d="m 150.54073,0 h 1.106 v -9.8 h -1.106 z"
             id="path4393" /><path
             d="m 160.76062,0.168 c 1.778,0 2.898,-0.686 3.92,-1.722 l -0.728,-0.714 c -0.938,0.896 -1.82,1.414 -3.164,1.414 -2.156,0 -3.794,-1.778 -3.794,-4.046 v -0.028 c 0,-2.254 1.624,-4.018 3.794,-4.018 1.33,0 2.254,0.56 3.08,1.344 l 0.756,-0.812 c -0.98,-0.924 -2.044,-1.554 -3.822,-1.554 -2.884,0 -4.956,2.296 -4.956,5.068 v 0.028 c 0,2.814 2.086,5.04 4.914,5.04 z"
             id="path4395" /><path
             d="m 168.01202,0 h 7.154 v -1.008 h -6.048 v -3.43 h 5.348 v -1.008 h -5.348 v -3.346 h 5.978 V -9.8 h -7.084 z"
             id="path4397" /><path
             d="m 184.39195,0 h 1.106 v -3.458 h 2.38 c 2.086,0 3.85,-1.092 3.85,-3.206 v -0.028 c 0,-1.932 -1.456,-3.108 -3.668,-3.108 h -3.668 z m 1.106,-4.466 v -4.312 h 2.478 c 1.582,0 2.632,0.728 2.632,2.128 v 0.028 c 0,1.288 -1.064,2.156 -2.688,2.156 z"
             id="path4399" /><path
             d="m 195.14395,0 h 1.106 v -3.808 h 2.8 l 2.842,3.808 h 1.358 l -3.01,-4.004 c 1.54,-0.28 2.66,-1.232 2.66,-2.856 v -0.028 c 0,-0.77 -0.28,-1.456 -0.756,-1.932 -0.616,-0.616 -1.582,-0.98 -2.786,-0.98 h -4.214 z m 1.106,-4.802 v -3.976 h 3.024 c 1.582,0 2.506,0.728 2.506,1.932 v 0.028 c 0,1.26 -1.05,2.016 -2.52,2.016 z"
             id="path4401" /><path
             d="m 211.21647,0.168 c 2.982,0 5.012,-2.366 5.012,-5.068 v -0.028 c 0,-2.702 -2.002,-5.04 -4.984,-5.04 -2.982,0 -5.012,2.366 -5.012,5.068 v 0.028 c 0,2.702 2.002,5.04 4.984,5.04 z m 0.028,-1.022 c -2.24,0 -3.864,-1.82 -3.864,-4.046 v -0.028 c 0,-2.226 1.596,-4.018 3.836,-4.018 2.24,0 3.864,1.82 3.864,4.046 v 0.028 c 0,2.226 -1.596,4.018 -3.836,4.018 z"
             id="path4403" /><path
             d="m 222.03826,0.14 c 0.868,0 1.61,-0.28 2.156,-0.812 0.56,-0.56 0.896,-1.428 0.896,-2.576 V -9.8 h -1.12 v 6.566 c 0,1.554 -0.812,2.352 -1.918,2.352 -1.022,0 -1.638,-0.49 -2.24,-1.4 l -0.798,0.686 c 0.616,1.008 1.554,1.736 3.024,1.736 z"
             id="path4405" /><path
             d="m 229.20553,0 h 7.154 v -1.008 h -6.048 v -3.43 h 5.348 v -1.008 h -5.348 v -3.346 h 5.978 V -9.8 h -7.084 z"
             id="path4407" /><path
             d="m 244.46582,0.168 c 1.778,0 2.898,-0.686 3.92,-1.722 l -0.728,-0.714 c -0.938,0.896 -1.82,1.414 -3.164,1.414 -2.156,0 -3.794,-1.778 -3.794,-4.046 v -0.028 c 0,-2.254 1.624,-4.018 3.794,-4.018 1.33,0 2.254,0.56 3.08,1.344 l 0.756,-0.812 c -0.98,-0.924 -2.044,-1.554 -3.822,-1.554 -2.884,0 -4.956,2.296 -4.956,5.068 v 0.028 c 0,2.814 2.086,5.04 4.914,5.04 z"
             id="path4409" /><path
             d="m 254.30823,0 h 1.12 v -8.778 h 3.29 V -9.8 h -7.7 v 1.022 h 3.29 z"
             id="path4411" /></g><g
           aria-label="an initiative of Education at Illinois"
           transform="matrix(1,0,0,-1,32.7566,40.225)"
           id="text1923"
           style="font-size:10px;font-family:ProximaNova;-inkscape-font-specification:ProximaNova-Regular;fill:#ffffff"><path
             d="m 3.77,0 v -0.55 q -0.61,0.67 -1.6,0.67 -0.31,0 -0.61,-0.1 -0.3,-0.1 -0.54,-0.3 -0.24,-0.21 -0.39,-0.51 -0.15,-0.3 -0.15,-0.69 0,-0.4 0.15,-0.7 0.15,-0.3 0.39,-0.5 0.24,-0.2 0.54,-0.29 0.3,-0.1 0.61,-0.1 0.5,0 0.9,0.16 0.41,0.16 0.7,0.5 V -3.28 Q 3.77,-3.77 3.42,-4.03 3.08,-4.3 2.55,-4.3 1.7,-4.3 1.07,-3.63 L 0.72,-4.15 q 0.77,-0.8 1.93,-0.8 0.38,0 0.72,0.09 0.34,0.09 0.59,0.29 0.26,0.19 0.41,0.5 0.15,0.31 0.15,0.75 V 0 Z M 2.44,-0.42 q 0.4,0 0.75,-0.15 0.36,-0.15 0.58,-0.45 V -1.93 Q 3.55,-2.23 3.19,-2.38 2.84,-2.53 2.44,-2.53 q -0.53,0 -0.86,0.3 -0.33,0.29 -0.33,0.76 0,0.46 0.33,0.76 0.33,0.29 0.86,0.29 z"
             style="font-family:'Proxima Nova';-inkscape-font-specification:'Proxima Nova'"
             id="path4414" /><path
             d="m 11.28,0 v -3.16 q 0,-0.64 -0.3,-0.88 -0.29,-0.24 -0.78,-0.24 -0.22,0 -0.43,0.06 -0.21,0.06 -0.4,0.17 -0.19,0.1 -0.35,0.24 -0.15,0.13 -0.25,0.28 V 0 H 8.02 v -4.83 h 0.75 v 0.7 q 0.13,-0.15 0.31,-0.29 0.18,-0.15 0.4,-0.27 0.23,-0.12 0.48,-0.19 0.26,-0.07 0.53,-0.07 1.54,0 1.54,1.56 V 0 Z"
             style="font-family:'Proxima Nova';-inkscape-font-specification:'Proxima Nova'"
             id="path4416" /><path
             d="m 20.47984,-5.52 q -0.2,0 -0.35,-0.14 -0.15,-0.15 -0.15,-0.36 0,-0.21 0.15,-0.36 0.15,-0.15 0.35,-0.15 0.21,0 0.36,0.15 0.15,0.15 0.15,0.36 0,0.21 -0.15,0.36 -0.15,0.14 -0.36,0.14 z m -0.37,5.52 v -4.83 h 0.75 V 0 Z"
             style="font-family:'Proxima Nova';-inkscape-font-specification:'Proxima Nova'"
             id="path4418" /><path
             d="m 27.61984,0 v -3.16 q 0,-0.64 -0.3,-0.88 -0.29,-0.24 -0.78,-0.24 -0.22,0 -0.43,0.06 -0.21,0.06 -0.4,0.17 -0.19,0.1 -0.35,0.24 -0.15,0.13 -0.25,0.28 V 0 h -0.75 v -4.83 h 0.75 v 0.7 q 0.13,-0.15 0.31,-0.29 0.18,-0.15 0.4,-0.27 0.23,-0.12 0.48,-0.19 0.26,-0.07 0.53,-0.07 1.54,0 1.54,1.56 V 0 Z"
             style="font-family:'Proxima Nova';-inkscape-font-specification:'Proxima Nova'"
             id="path4420" /><path
             d="m 32.240581,-5.52 q -0.2,0 -0.35,-0.14 -0.15,-0.15 -0.15,-0.36 0,-0.21 0.15,-0.36 0.15,-0.15 0.35,-0.15 0.21,0 0.36,0.15 0.15,0.15 0.15,0.36 0,0.21 -0.15,0.36 -0.15,0.14 -0.36,0.14 z m -0.37,5.52 v -4.83 h 0.75 V 0 Z"
             style="font-family:'Proxima Nova';-inkscape-font-specification:'Proxima Nova'"
             id="path4422" /><path
             d="m 37.339598,0.12 q -0.54,0 -0.81,-0.29 -0.26,-0.3 -0.26,-0.84 v -3.16 h -0.8 v -0.66 h 0.8 v -1.32 h 0.75 v 1.32 h 0.98 v 0.66 h -0.98 v 3 q 0,0.27 0.12,0.45 0.12,0.17 0.37,0.17 0.16,0 0.29,-0.06 0.14,-0.06 0.22,-0.14 l 0.22,0.56 q -0.14,0.14 -0.36,0.22 -0.21,0.09 -0.54,0.09 z"
             style="font-family:'Proxima Nova';-inkscape-font-specification:'Proxima Nova'"
             id="path4424" /><path
             d="m 41.429601,-5.52 q -0.2,0 -0.35,-0.14 -0.15,-0.15 -0.15,-0.36 0,-0.21 0.15,-0.36 0.15,-0.15 0.35,-0.15 0.21,0 0.36,0.15 0.15,0.15 0.15,0.36 0,0.21 -0.15,0.36 -0.15,0.14 -0.36,0.14 z m -0.37,5.52 v -4.83 h 0.75 V 0 Z"
             style="font-family:'Proxima Nova';-inkscape-font-specification:'Proxima Nova'"
             id="path4426" /><path
             d="m 48.329601,0 v -0.55 q -0.61,0.67 -1.6,0.67 -0.31,0 -0.61,-0.1 -0.3,-0.1 -0.54,-0.3 -0.24,-0.21 -0.39,-0.51 -0.15,-0.3 -0.15,-0.69 0,-0.4 0.15,-0.7 0.15,-0.3 0.39,-0.5 0.24,-0.2 0.54,-0.29 0.3,-0.1 0.61,-0.1 0.5,0 0.9,0.16 0.41,0.16 0.7,0.5 v -0.87 q 0,-0.49 -0.35,-0.75 -0.34,-0.27 -0.87,-0.27 -0.85,0 -1.48,0.67 l -0.35,-0.52 q 0.77,-0.8 1.93,-0.8 0.38,0 0.72,0.09 0.34,0.09 0.59,0.29 0.26,0.19 0.41,0.5 0.15,0.31 0.15,0.75 V 0 Z m -1.33,-0.42 q 0.4,0 0.75,-0.15 0.36,-0.15 0.58,-0.45 v -0.91 q -0.22,-0.3 -0.58,-0.45 -0.35,-0.15 -0.75,-0.15 -0.53,0 -0.86,0.3 -0.33,0.29 -0.33,0.76 0,0.46 0.33,0.76 0.33,0.29 0.86,0.29 z"
             style="font-family:'Proxima Nova';-inkscape-font-specification:'Proxima Nova'"
             id="path4428" /><path
             d="m 53.799601,0.12 q -0.54,0 -0.81,-0.29 -0.26,-0.3 -0.26,-0.84 v -3.16 h -0.8 v -0.66 h 0.8 v -1.32 h 0.75 v 1.32 h 0.98 v 0.66 h -0.98 v 3 q 0,0.27 0.12,0.45 0.12,0.17 0.37,0.17 0.16,0 0.29,-0.06 0.14,-0.06 0.22,-0.14 l 0.22,0.56 q -0.14,0.14 -0.36,0.22 -0.21,0.09 -0.54,0.09 z"
             style="font-family:'Proxima Nova';-inkscape-font-specification:'Proxima Nova'"
             id="path4430" /><path
             d="m 57.8896,-5.52 q -0.2,0 -0.35,-0.14 -0.15,-0.15 -0.15,-0.36 0,-0.21 0.15,-0.36 0.15,-0.15 0.35,-0.15 0.21,0 0.36,0.15 0.15,0.15 0.15,0.36 0,0.21 -0.15,0.36 -0.15,0.14 -0.36,0.14 z M 57.5196,0 v -4.83 h 0.75 V 0 Z"
             style="font-family:'Proxima Nova';-inkscape-font-specification:'Proxima Nova'"
             id="path4432" /><path
             d="m 63.0596,0 -2.01,-4.83 h 0.81 l 1.61,3.96 1.6,-3.96 h 0.82 L 63.8796,0 Z"
             style="font-family:'Proxima Nova';-inkscape-font-specification:'Proxima Nova'"
             id="path4434" /><path
             d="m 70.849006,0.12 q -0.54,0 -0.99,-0.18 -0.45,-0.19 -0.78,-0.52 -0.32,-0.34 -0.51,-0.8 -0.18,-0.47 -0.18,-1.04 0,-0.52 0.18,-0.98 0.18,-0.47 0.49,-0.81 0.32,-0.34 0.75,-0.54 0.44,-0.2 0.96,-0.2 0.55,0 0.98,0.2 0.43,0.2 0.73,0.55 0.3,0.35 0.45,0.83 0.16,0.47 0.16,1.01 v 0.19 h -3.91 q 0.02,0.34 0.15,0.65 0.13,0.3 0.35,0.53 0.23,0.22 0.54,0.36 0.31,0.13 0.7,0.13 0.42,0 0.81,-0.16 0.39,-0.16 0.68,-0.45 l 0.36,0.49 q -0.36,0.36 -0.84,0.55 -0.48,0.19 -1.08,0.19 z m 1.5,-2.84 q 0,-0.27 -0.1,-0.55 -0.09,-0.29 -0.29,-0.52 -0.19,-0.24 -0.49,-0.39 -0.3,-0.15 -0.71,-0.15 -0.39,0 -0.68,0.15 -0.29,0.15 -0.49,0.38 -0.19,0.23 -0.3,0.52 -0.1,0.28 -0.11,0.56 z"
             style="font-family:'Proxima Nova';-inkscape-font-specification:'Proxima Nova'"
             id="path4436" /><path
             d="m 82.989013,0.12 q -0.55,0 -1,-0.2 -0.44,-0.2 -0.75,-0.54 -0.31,-0.35 -0.48,-0.81 -0.16,-0.46 -0.16,-0.99 0,-0.52 0.16,-0.98 0.17,-0.47 0.48,-0.81 0.31,-0.34 0.75,-0.54 0.45,-0.2 1,-0.2 0.55,0 0.99,0.2 0.45,0.2 0.76,0.54 0.31,0.34 0.47,0.81 0.17,0.46 0.17,0.98 0,0.53 -0.17,0.99 -0.16,0.46 -0.47,0.81 -0.31,0.34 -0.76,0.54 -0.44,0.2 -0.99,0.2 z m 0,-0.67 q 0.39,0 0.68,-0.15 0.3,-0.16 0.5,-0.41 0.21,-0.26 0.31,-0.6 0.11,-0.34 0.11,-0.71 0,-0.37 -0.11,-0.7 -0.1,-0.34 -0.31,-0.59 -0.2,-0.26 -0.5,-0.41 -0.29,-0.16 -0.68,-0.16 -0.39,0 -0.69,0.16 -0.3,0.15 -0.51,0.41 -0.2,0.25 -0.31,0.59 -0.1,0.33 -0.1,0.7 0,0.37 0.1,0.71 0.11,0.34 0.31,0.6 0.21,0.25 0.51,0.41 0.3,0.15 0.69,0.15 z"
             style="font-family:'Proxima Nova';-inkscape-font-specification:'Proxima Nova'"
             id="path4438" /><path
             d="m 88.809007,0 v -4.17 h -0.8 v -0.66 h 0.8 V -5.2 q 0,-0.75 0.37,-1.16 0.38,-0.41 1.03,-0.41 0.29,0 0.54,0.08 0.25,0.08 0.48,0.29 l -0.31,0.49 q -0.12,-0.11 -0.27,-0.17 -0.14,-0.07 -0.33,-0.07 -0.37,0 -0.57,0.25 -0.19,0.24 -0.19,0.7 v 0.37 h 0.98 v 0.66 h -0.98 V 0 Z"
             style="font-family:'Proxima Nova';-inkscape-font-specification:'Proxima Nova'"
             id="path4440" /><path
             d="m 98.03901,0 v -6.67 h 4.37 v 0.74 h -3.54 v 2.15 h 3.47 v 0.74 h -3.47 v 2.3 h 3.54 V 0 Z"
             style="font-family:'Proxima Nova';-inkscape-font-specification:'Proxima Nova'"
             id="path4442" /><path
             d="m 109.19846,0 v -0.72 q -0.27,0.37 -0.7,0.61 -0.42,0.23 -0.93,0.23 -0.47,0 -0.87,-0.17 -0.39,-0.18 -0.68,-0.5 -0.28,-0.33 -0.44,-0.8 -0.16,-0.47 -0.16,-1.06 0,-0.58 0.15,-1.05 0.16,-0.47 0.44,-0.8 0.29,-0.33 0.68,-0.51 0.4,-0.18 0.88,-0.18 0.49,0 0.91,0.23 0.43,0.22 0.72,0.62 v -2.57 h 0.75 V 0 Z m -1.45,-0.55 q 0.45,0 0.85,-0.22 0.4,-0.22 0.6,-0.54 V -3.5 q -0.2,-0.32 -0.6,-0.55 -0.4,-0.23 -0.85,-0.23 -0.36,0 -0.65,0.14 -0.29,0.14 -0.49,0.39 -0.2,0.25 -0.31,0.6 -0.1,0.34 -0.1,0.74 0,0.4 0.1,0.74 0.11,0.34 0.31,0.59 0.2,0.25 0.49,0.39 0.29,0.14 0.65,0.14 z"
             style="font-family:'Proxima Nova';-inkscape-font-specification:'Proxima Nova'"
             id="path4444" /><path
             d="m 116.70846,0 v -0.68 q -0.28,0.32 -0.73,0.56 -0.45,0.24 -0.99,0.24 -0.76,0 -1.15,-0.37 -0.39,-0.38 -0.39,-1.17 v -3.41 h 0.75 v 3.18 q 0,0.32 0.07,0.53 0.08,0.21 0.22,0.34 0.15,0.13 0.35,0.18 0.2,0.05 0.44,0.05 0.44,0 0.83,-0.22 0.39,-0.22 0.6,-0.51 v -3.55 h 0.75 V 0 Z"
             style="font-family:'Proxima Nova';-inkscape-font-specification:'Proxima Nova'"
             id="path4446" /><path
             d="m 123.08846,0.12 q -0.54,0 -0.99,-0.19 -0.44,-0.2 -0.76,-0.54 -0.31,-0.34 -0.49,-0.8 -0.17,-0.47 -0.17,-1.01 0,-0.54 0.17,-1 0.18,-0.46 0.49,-0.8 0.32,-0.34 0.76,-0.53 0.45,-0.2 0.99,-0.2 0.66,0 1.07,0.24 0.42,0.24 0.7,0.6 l -0.5,0.46 q -0.24,-0.33 -0.55,-0.48 -0.3,-0.15 -0.68,-0.15 -0.39,0 -0.7,0.14 -0.3,0.14 -0.52,0.39 -0.22,0.25 -0.34,0.59 -0.11,0.34 -0.11,0.74 0,0.4 0.11,0.75 0.12,0.34 0.34,0.59 0.22,0.25 0.52,0.39 0.31,0.14 0.7,0.14 0.76,0 1.23,-0.63 l 0.5,0.46 q -0.28,0.36 -0.7,0.6 -0.41,0.24 -1.07,0.24 z"
             style="font-family:'Proxima Nova';-inkscape-font-specification:'Proxima Nova'"
             id="path4448" /><path
             d="m 130.92846,0 v -0.55 q -0.61,0.67 -1.6,0.67 -0.31,0 -0.61,-0.1 -0.3,-0.1 -0.54,-0.3 -0.24,-0.21 -0.39,-0.51 -0.15,-0.3 -0.15,-0.69 0,-0.4 0.15,-0.7 0.15,-0.3 0.39,-0.5 0.24,-0.2 0.54,-0.29 0.3,-0.1 0.61,-0.1 0.5,0 0.9,0.16 0.41,0.16 0.7,0.5 v -0.87 q 0,-0.49 -0.35,-0.75 -0.34,-0.27 -0.87,-0.27 -0.85,0 -1.48,0.67 l -0.35,-0.52 q 0.77,-0.8 1.93,-0.8 0.38,0 0.72,0.09 0.34,0.09 0.59,0.29 0.26,0.19 0.41,0.5 0.15,0.31 0.15,0.75 V 0 Z m -1.33,-0.42 q 0.4,0 0.75,-0.15 0.36,-0.15 0.58,-0.45 v -0.91 q -0.22,-0.3 -0.58,-0.45 -0.35,-0.15 -0.75,-0.15 -0.53,0 -0.86,0.3 -0.33,0.29 -0.33,0.76 0,0.46 0.33,0.76 0.33,0.29 0.86,0.29 z"
             style="font-family:'Proxima Nova';-inkscape-font-specification:'Proxima Nova'"
             id="path4450" /><path
             d="m 136.39897,0.12 q -0.54,0 -0.81,-0.29 -0.26,-0.3 -0.26,-0.84 v -3.16 h -0.8 v -0.66 h 0.8 v -1.32 h 0.75 v 1.32 h 0.98 v 0.66 h -0.98 v 3 q 0,0.27 0.12,0.45 0.12,0.17 0.37,0.17 0.16,0 0.29,-0.06 0.14,-0.06 0.22,-0.14 l 0.22,0.56 q -0.14,0.14 -0.36,0.22 -0.21,0.09 -0.54,0.09 z"
             style="font-family:'Proxima Nova';-inkscape-font-specification:'Proxima Nova'"
             id="path4452" /><path
             d="m 140.48842,-5.52 q -0.2,0 -0.35,-0.14 -0.15,-0.15 -0.15,-0.36 0,-0.21 0.15,-0.36 0.15,-0.15 0.35,-0.15 0.21,0 0.36,0.15 0.15,0.15 0.15,0.36 0,0.21 -0.15,0.36 -0.15,0.14 -0.36,0.14 z m -0.37,5.52 v -4.83 h 0.75 V 0 Z"
             style="font-family:'Proxima Nova';-inkscape-font-specification:'Proxima Nova'"
             id="path4454" /><path
             d="m 146.47842,0.12 q -0.55,0 -1,-0.2 -0.44,-0.2 -0.75,-0.54 -0.31,-0.35 -0.48,-0.81 -0.16,-0.46 -0.16,-0.99 0,-0.52 0.16,-0.98 0.17,-0.47 0.48,-0.81 0.31,-0.34 0.75,-0.54 0.45,-0.2 1,-0.2 0.55,0 0.99,0.2 0.45,0.2 0.76,0.54 0.31,0.34 0.47,0.81 0.17,0.46 0.17,0.98 0,0.53 -0.17,0.99 -0.16,0.46 -0.47,0.81 -0.31,0.34 -0.76,0.54 -0.44,0.2 -0.99,0.2 z m 0,-0.67 q 0.39,0 0.68,-0.15 0.3,-0.16 0.5,-0.41 0.21,-0.26 0.31,-0.6 0.11,-0.34 0.11,-0.71 0,-0.37 -0.11,-0.7 -0.1,-0.34 -0.31,-0.59 -0.2,-0.26 -0.5,-0.41 -0.29,-0.16 -0.68,-0.16 -0.39,0 -0.69,0.16 -0.3,0.15 -0.51,0.41 -0.2,0.25 -0.31,0.59 -0.1,0.33 -0.1,0.7 0,0.37 0.1,0.71 0.11,0.34 0.31,0.6 0.21,0.25 0.51,0.41 0.3,0.15 0.69,0.15 z"
             style="font-family:'Proxima Nova';-inkscape-font-specification:'Proxima Nova'"
             id="path4456" /><path
             d="m 155.34842,0 v -3.16 q 0,-0.64 -0.3,-0.88 -0.29,-0.24 -0.78,-0.24 -0.22,0 -0.43,0.06 -0.21,0.06 -0.4,0.17 -0.19,0.1 -0.35,0.24 -0.15,0.13 -0.25,0.28 V 0 h -0.75 v -4.83 h 0.75 v 0.7 q 0.13,-0.15 0.31,-0.29 0.18,-0.15 0.4,-0.27 0.23,-0.12 0.48,-0.19 0.26,-0.07 0.53,-0.07 1.54,0 1.54,1.56 V 0 Z"
             style="font-family:'Proxima Nova';-inkscape-font-specification:'Proxima Nova'"
             id="path4458" /><path
             d="m 167.19842,0 v -0.55 q -0.61,0.67 -1.6,0.67 -0.31,0 -0.61,-0.1 -0.3,-0.1 -0.54,-0.3 -0.24,-0.21 -0.39,-0.51 -0.15,-0.3 -0.15,-0.69 0,-0.4 0.15,-0.7 0.15,-0.3 0.39,-0.5 0.24,-0.2 0.54,-0.29 0.3,-0.1 0.61,-0.1 0.5,0 0.9,0.16 0.41,0.16 0.7,0.5 v -0.87 q 0,-0.49 -0.35,-0.75 -0.34,-0.27 -0.87,-0.27 -0.85,0 -1.48,0.67 l -0.35,-0.52 q 0.77,-0.8 1.93,-0.8 0.38,0 0.72,0.09 0.34,0.09 0.59,0.29 0.26,0.19 0.41,0.5 0.15,0.31 0.15,0.75 V 0 Z m -1.33,-0.42 q 0.4,0 0.75,-0.15 0.36,-0.15 0.58,-0.45 v -0.91 q -0.22,-0.3 -0.58,-0.45 -0.35,-0.15 -0.75,-0.15 -0.53,0 -0.86,0.3 -0.33,0.29 -0.33,0.76 0,0.46 0.33,0.76 0.33,0.29 0.86,0.29 z"
             style="font-family:'Proxima Nova';-inkscape-font-specification:'Proxima Nova'"
             id="path4460" /><path
             d="m 172.66894,0.12 q -0.54,0 -0.81,-0.29 -0.26,-0.3 -0.26,-0.84 v -3.16 h -0.8 v -0.66 h 0.8 v -1.32 h 0.75 v 1.32 h 0.98 v 0.66 h -0.98 v 3 q 0,0.27 0.12,0.45 0.12,0.17 0.37,0.17 0.16,0 0.29,-0.06 0.14,-0.06 0.22,-0.14 l 0.22,0.56 q -0.14,0.14 -0.36,0.22 -0.21,0.09 -0.54,0.09 z"
             style="font-family:'Proxima Nova';-inkscape-font-specification:'Proxima Nova'"
             id="path4462" /><path
             d="m 180.99838,0 v -6.67 h 0.83 V 0 Z"
             style="font-family:'Proxima Nova';-inkscape-font-specification:'Proxima Nova'"
             id="path4464" /><path
             d="m 185.35838,0 v -6.67 h 0.75 V 0 Z"
             style="font-family:'Proxima Nova';-inkscape-font-specification:'Proxima Nova'"
             id="path4466" /><path
             d="m 189.60838,0 v -6.67 h 0.75 V 0 Z"
             style="font-family:'Proxima Nova';-inkscape-font-specification:'Proxima Nova'"
             id="path4468" /><path
             d="m 194.22838,-5.52 q -0.2,0 -0.35,-0.14 -0.15,-0.15 -0.15,-0.36 0,-0.21 0.15,-0.36 0.15,-0.15 0.35,-0.15 0.21,0 0.36,0.15 0.15,0.15 0.15,0.36 0,0.21 -0.15,0.36 -0.15,0.14 -0.36,0.14 z m -0.37,5.52 v -4.83 h 0.75 V 0 Z"
             style="font-family:'Proxima Nova';-inkscape-font-specification:'Proxima Nova'"
             id="path4470" /><path
             d="m 201.36838,0 v -3.16 q 0,-0.64 -0.3,-0.88 -0.29,-0.24 -0.78,-0.24 -0.22,0 -0.43,0.06 -0.21,0.06 -0.4,0.17 -0.19,0.1 -0.35,0.24 -0.15,0.13 -0.25,0.28 V 0 h -0.75 v -4.83 h 0.75 v 0.7 q 0.13,-0.15 0.31,-0.29 0.18,-0.15 0.4,-0.27 0.23,-0.12 0.48,-0.19 0.26,-0.07 0.53,-0.07 1.54,0 1.54,1.56 V 0 Z"
             style="font-family:'Proxima Nova';-inkscape-font-specification:'Proxima Nova'"
             id="path4472" /><path
             d="m 207.72838,0.12 q -0.55,0 -1,-0.2 -0.44,-0.2 -0.75,-0.54 -0.31,-0.35 -0.48,-0.81 -0.16,-0.46 -0.16,-0.99 0,-0.52 0.16,-0.98 0.17,-0.47 0.48,-0.81 0.31,-0.34 0.75,-0.54 0.45,-0.2 1,-0.2 0.55,0 0.99,0.2 0.45,0.2 0.76,0.54 0.31,0.34 0.47,0.81 0.17,0.46 0.17,0.98 0,0.53 -0.17,0.99 -0.16,0.46 -0.47,0.81 -0.31,0.34 -0.76,0.54 -0.44,0.2 -0.99,0.2 z m 0,-0.67 q 0.39,0 0.68,-0.15 0.3,-0.16 0.5,-0.41 0.21,-0.26 0.31,-0.6 0.11,-0.34 0.11,-0.71 0,-0.37 -0.11,-0.7 -0.1,-0.34 -0.31,-0.59 -0.2,-0.26 -0.5,-0.41 -0.29,-0.16 -0.68,-0.16 -0.39,0 -0.69,0.16 -0.3,0.15 -0.51,0.41 -0.2,0.25 -0.31,0.59 -0.1,0.33 -0.1,0.7 0,0.37 0.1,0.71 0.11,0.34 0.31,0.6 0.21,0.25 0.51,0.41 0.3,0.15 0.69,0.15 z"
             style="font-family:'Proxima Nova';-inkscape-font-specification:'Proxima Nova'"
             id="path4474" /><path
             d="m 213.70838,-5.52 q -0.2,0 -0.35,-0.14 -0.15,-0.15 -0.15,-0.36 0,-0.21 0.15,-0.36 0.15,-0.15 0.35,-0.15 0.21,0 0.36,0.15 0.15,0.15 0.15,0.36 0,0.21 -0.15,0.36 -0.15,0.14 -0.36,0.14 z m -0.37,5.52 v -4.83 h 0.75 V 0 Z"
             style="font-family:'Proxima Nova';-inkscape-font-specification:'Proxima Nova'"
             id="path4476" /><path
             d="m 219.11838,0.12 q -0.6,0 -1.09,-0.18 -0.49,-0.19 -0.86,-0.58 l 0.39,-0.54 q 0.24,0.28 0.66,0.49 0.43,0.2 0.93,0.2 0.56,0 0.85,-0.23 0.29,-0.24 0.29,-0.6 0,-0.29 -0.22,-0.44 -0.22,-0.16 -0.56,-0.26 -0.33,-0.1 -0.72,-0.18 -0.38,-0.09 -0.72,-0.24 -0.33,-0.16 -0.55,-0.41 -0.22,-0.26 -0.22,-0.71 0,-0.28 0.12,-0.53 0.12,-0.26 0.35,-0.45 0.23,-0.19 0.56,-0.3 0.34,-0.11 0.77,-0.11 0.62,0 1.06,0.21 0.44,0.2 0.73,0.49 l -0.35,0.52 q -0.22,-0.26 -0.6,-0.43 -0.37,-0.18 -0.84,-0.18 -0.5,0 -0.79,0.22 -0.28,0.22 -0.28,0.54 0,0.26 0.22,0.4 0.22,0.14 0.55,0.24 0.34,0.09 0.72,0.18 0.39,0.08 0.72,0.24 0.34,0.16 0.56,0.44 0.22,0.27 0.22,0.74 0,0.3 -0.12,0.57 -0.12,0.27 -0.36,0.47 -0.24,0.19 -0.6,0.3 -0.35,0.12 -0.82,0.12 z"
             style="font-family:'Proxima Nova';-inkscape-font-specification:'Proxima Nova'"
             id="path4478" /></g></g><path
         d="m 1913.03,1240.14 c 0,-261.249 -211.79,-473.031 -473.03,-473.031 -261.24,0 -473.027,211.782 -473.027,473.031 0,261.24 211.787,473.02 473.027,473.02 261.24,0 473.03,-211.78 473.03,-473.02"
         style="fill:#91c1ea;fill-opacity:1;fill-rule:nonzero;stroke:none"
         id="path1925" /><g
         id="g1927"
         transform="scale(10)"><g
           aria-label="ejp"
           transform="matrix(1,0,0,-1,89.416,97.5949)"
           id="text1931"
           style="font-size:90px;font-family:MyriadPro;-inkscape-font-specification:MyriadPro-Regular;fill:#284373"><path
             d="m 41.58,-20.34 c 0.18,-0.9 0.27,-2.07 0.27,-3.69 0,-8.01 -3.69,-20.43 -18,-20.43 -12.69,0 -20.43,10.26 -20.43,23.4 0,13.14 8.01,22.05 21.42,22.05 6.93,0 11.79,-1.53 14.58,-2.79 l -1.44,-5.67 c -2.88,1.26 -6.39,2.25 -12.06,2.25 -8.01,0 -14.76,-4.41 -14.94,-15.12 z m -30.51,-5.67 c 0.63,-5.49 4.05,-12.78 12.15,-12.78 8.91,0 11.07,7.83 10.98,12.78 z"
             style="font-family:'Myriad Pro';-inkscape-font-specification:'Myriad Pro'"
             id="path4481" /><path
             d="m 37.348902,18.99 c 4.23,0 9.99,-1.44 13.5,-4.95 3.87,-3.96 5.22,-9.45 5.22,-17.91 v -39.69 h -7.92 v 36.63 c 0,10.44 -0.9,13.86 -3.06,16.29 -1.89,2.16 -4.95,3.15 -8.64,3.42 z m 14.76,-79.74 c -2.97,0 -4.95,2.25 -4.95,4.95 0,2.61 1.89,4.86 4.77,4.86 3.24,0 5.04,-2.25 5.04,-4.86 0,-2.7 -1.89,-4.95 -4.86,-4.95 z"
             style="font-family:'Myriad Pro';-inkscape-font-specification:'Myriad Pro'"
             id="path4483" /><path
             d="m 64.529,17.82 h 7.83 V -5.85 h 0.18 c 2.61,4.32 7.65,6.84 13.41,6.84 10.26,0 19.89,-7.74 19.89,-23.4 0,-13.14 -7.92,-22.05 -18.54,-22.05 -7.11,0 -12.33,3.06 -15.48,8.37 h -0.18 l -0.45,-7.47 h -7.02 c 0.18,4.14 0.36,8.64 0.36,14.22 z m 7.83,-43.11 c 0,-0.99 0.27,-2.16 0.54,-3.15 1.44,-5.94 6.57,-9.72 11.97,-9.72 8.37,0 12.96,7.47 12.96,16.11 0,9.99 -4.86,16.83 -13.23,16.83 -5.67,0 -10.44,-3.78 -11.88,-9.27 -0.27,-0.99 -0.36,-2.07 -0.36,-3.24 z"
             style="font-family:'Myriad Pro';-inkscape-font-specification:'Myriad Pro'"
             id="path4485" /></g></g></g></g></svg>
